<svg width="144" height="24" viewBox="0 0 144 24" fill="none" xmlns="http://www.w3.org/2000/svg">
<path d="M39.6843 17.446C38.6059 18.1493 37.3165 18.5009 36.0271 18.5009C32.9092 18.5009 29.7678 16.4145 29.7678 12.2416C29.7678 8.06868 32.9092 6.00568 36.0271 6.00568C37.3165 6.00568 38.6293 6.38077 39.6843 7.08407C40.0594 7.34194 40.2235 7.69359 40.2235 8.0218C40.2235 8.46722 39.9187 8.84231 39.5202 8.84231C39.3795 8.84231 39.2388 8.79542 39.0982 8.70165C38.2542 8.13901 37.2462 7.85769 36.285 7.85769C33.9876 7.85769 31.8074 9.3815 31.8074 12.2416C31.8074 14.9844 33.9172 16.6489 36.2616 16.6489C37.1993 16.6489 38.1605 16.391 39.0513 15.8284C39.2154 15.7346 39.3561 15.6877 39.4733 15.6877C39.8953 15.6877 40.1766 16.1097 40.1766 16.5551C40.1766 16.8833 40.0359 17.2115 39.6843 17.446ZM46.7493 5.9588C50.805 5.9588 52.2115 8.35 52.2115 11.2804V17.3522C52.2115 17.9148 51.7661 18.4071 51.18 18.4071C50.6174 18.4071 50.1485 17.9383 50.1485 17.3756V16.4848C49.4687 17.7976 47.8277 18.5243 45.9991 18.5243C43.4438 18.5243 41.4042 16.9068 41.4042 14.3749C41.4042 11.843 43.4438 10.2255 46.1398 10.2255C47.7573 10.2255 49.2811 10.835 50.1485 11.8665V11.2804C50.1485 9.10018 49.0936 7.69359 46.3976 7.69359C44.991 7.69359 43.9361 8.0218 42.9515 8.35C42.8577 8.37345 42.7639 8.39689 42.6702 8.39689C42.2013 8.39689 41.92 7.97491 41.92 7.55293C41.92 7.20129 42.1075 6.84964 42.5529 6.70898C43.5844 6.35733 44.8973 5.9588 46.7493 5.9588ZM46.7258 16.9771C48.7185 16.9771 50.1485 15.8518 50.1485 14.3515C50.1485 12.8277 48.6951 11.7024 46.7258 11.7024C44.8738 11.7024 43.4907 12.8042 43.4907 14.328C43.4907 15.8987 44.8738 16.9771 46.7258 16.9771ZM58.776 18.5243C56.4551 18.5243 54.8844 17.6335 54.0405 16.18C53.8998 15.9456 53.8529 15.7112 53.8529 15.5002C53.8529 14.9141 54.2984 14.4921 54.7672 14.4921C55.072 14.4921 55.3767 14.6562 55.5877 15.0548C56.2441 16.2738 57.2522 16.8833 58.7994 16.8833C60.3936 16.8833 61.4251 16.2269 61.4251 15.1251C61.4251 12.3119 54.1108 13.6482 54.1108 9.42839C54.1108 7.29506 56.0097 5.98224 58.4947 5.98224C60.3467 5.98224 61.9643 6.84964 62.7145 8.06868C62.8551 8.30312 62.9254 8.53755 62.9254 8.74854C62.9254 9.26429 62.5504 9.68626 62.1284 9.68626C61.8471 9.68626 61.5657 9.52216 61.3079 9.17051C60.5577 8.11557 59.6434 7.57638 58.4712 7.57638C57.135 7.57638 56.1035 8.23279 56.1035 9.26429C56.1035 12.0071 63.4881 10.5537 63.4881 14.9844C63.4881 17.2819 61.5423 18.5243 58.776 18.5243ZM68.2804 6.21667H70.1324C70.5778 6.21667 70.9529 6.59176 70.9529 7.03718C70.9529 7.4826 70.5544 7.83425 70.1324 7.83425H68.2804V17.3756C68.2804 18.032 67.7646 18.3837 67.2723 18.3837C66.7566 18.3837 66.2408 18.032 66.2408 17.3756V7.83425H65.1624C64.717 7.83425 64.3419 7.45916 64.3419 7.03718C64.3419 6.59176 64.717 6.21667 65.1624 6.21667H66.2408V3.66136C66.2408 2.98151 66.78 2.6533 67.2723 2.6533C67.7646 2.6533 68.2804 2.98151 68.2804 3.66136V6.21667ZM73.2767 18.3837C72.6672 18.3837 72.2452 17.9617 72.2452 17.3756V11.3038C72.2452 7.83425 74.2848 5.9588 77.1917 5.9588C79.3251 5.9588 80.7551 7.01374 81.3881 8.5141C82.021 7.03718 83.4276 5.9588 85.6078 5.9588C88.4914 5.9588 90.5309 7.83425 90.5309 11.3038V17.3756C90.5309 17.9617 90.1324 18.3837 89.5229 18.3837C88.9133 18.3837 88.4914 17.9617 88.4914 17.3756V11.3038C88.4914 8.95952 87.2489 7.74048 85.5141 7.74048C83.7089 7.74048 82.4196 8.98297 82.4196 11.3038V17.3756C82.4196 17.9617 81.9976 18.3837 81.3881 18.3837C80.7785 18.3837 80.3566 17.9617 80.3566 17.3756V11.3038C80.3566 8.98297 79.0672 7.74048 77.2621 7.74048C75.5273 7.74048 74.2848 8.95952 74.2848 11.3038V17.3756C74.2848 17.9617 73.8862 18.3837 73.2767 18.3837ZM98.5435 18.5243C94.8864 18.5243 92.1201 15.8284 92.1201 12.2416C92.1201 8.65476 94.8864 5.9588 98.5435 5.9588C102.224 5.9588 104.967 8.65476 104.967 12.2416C104.967 15.8284 102.224 18.5243 98.5435 18.5243ZM98.5435 16.6723C101.052 16.6723 102.974 14.75 102.974 12.2181C102.974 9.73315 101.075 7.81081 98.5435 7.81081C96.0351 7.81081 94.1128 9.73315 94.1128 12.2181C94.1128 14.75 96.0586 16.6723 98.5435 16.6723ZM107.595 18.3837C107.032 18.3837 106.563 17.9148 106.563 17.3522V11.4679C106.563 7.83425 108.884 5.9588 111.979 5.9588C115.073 5.9588 117.394 7.83425 117.394 11.4679V17.3522C117.394 17.9148 116.925 18.3837 116.363 18.3837C115.8 18.3837 115.331 17.9148 115.331 17.3522V11.4679C115.331 8.91264 113.831 7.74048 111.979 7.74048C110.127 7.74048 108.626 8.91264 108.626 11.4679V17.3522C108.626 17.9148 108.157 18.3837 107.595 18.3837ZM130.58 11.7962C130.65 12.5229 130.228 12.9214 129.501 12.9214H120.827C120.898 15.4298 123.054 16.7896 125.516 16.7896C126.688 16.7896 127.673 16.4379 128.868 15.8987C128.986 15.8518 129.103 15.8049 129.22 15.8049C129.642 15.8049 129.923 16.18 129.923 16.602C129.923 16.9302 129.759 17.2584 129.384 17.446C128.353 17.9617 126.97 18.5243 125.258 18.5243C121.578 18.5243 118.811 16.1566 118.811 12.1947C118.811 8.53755 121.296 5.9588 124.93 5.9588C128.189 5.9588 130.275 8.30312 130.58 11.7962ZM120.827 11.5617H128.611C128.4 9.35806 127.157 7.69359 124.86 7.69359C122.492 7.69359 120.898 9.3815 120.827 11.5617ZM142.198 6.1229C142.761 6.1229 143.23 6.59176 143.23 7.13096V17.2115C143.23 21.5954 140.885 23.9866 137.228 23.9866C135.095 23.9866 133.407 23.1192 132.704 22.7207C132.399 22.5331 132.258 22.2518 132.258 21.9705C132.258 21.5485 132.563 21.1265 133.008 21.1265C133.126 21.1265 133.243 21.15 133.383 21.2203C134.579 21.8298 135.939 22.2284 137.181 22.2284C139.361 22.2284 141.167 20.9624 141.167 17.2115V16.0863C140.393 17.657 138.893 18.5243 136.947 18.5243C134.391 18.5243 132.094 17.024 132.094 13.32V7.13096C132.094 6.59176 132.539 6.1229 133.126 6.1229C133.688 6.1229 134.134 6.59176 134.134 7.13096V13.0386C134.134 15.8518 135.798 16.7661 137.533 16.7661C139.783 16.7661 141.167 15.2657 141.167 12.7573V7.13096C141.167 6.59176 141.635 6.1229 142.198 6.1229Z" fill="white"/>
<rect y="0.452881" width="23.4432" height="23.4432" rx="4.10566" fill="#E0ED64"/>
<path d="M9.77896 12.1161C9.77896 10.8341 10.7594 9.78402 12.0119 9.66805L12.0119 4.70451L12.0077 3.40986C11.7758 3.39088 11.5396 3.38245 11.3034 3.38245C6.48328 3.38245 2.56348 7.30225 2.56348 12.1203C2.56348 16.9384 6.48328 20.8582 11.3013 20.8582C11.5396 20.8582 11.7737 20.8476 12.0056 20.8308L12.0098 19.5361L12.0098 14.5451C10.7573 14.4334 9.77685 13.396 9.77685 12.114L9.77896 12.1161Z" fill="#242920"/>
<path d="M12.6445 20.7653L12.6445 19.5908C16.771 19.5908 20.1278 16.234 20.1278 12.1076C20.1278 7.98112 16.771 4.6243 12.6445 4.6243L12.6445 3.44983C17.4183 3.44983 21.3023 7.33379 21.3023 12.1076C21.3023 16.8813 17.4183 20.7653 12.6445 20.7653Z" fill="#242920"/>
<path d="M12.6445 18.3172L12.6445 17.1427C15.4215 17.1427 17.6819 14.8823 17.6819 12.1054C17.6819 9.32839 15.4215 7.06802 12.6445 7.06802L12.6445 5.89355C16.0688 5.89355 18.8563 8.67896 18.8563 12.1054C18.8563 15.5318 16.0709 18.3151 12.6445 18.3151L12.6445 18.3172Z" fill="#242920"/>
<path d="M12.6445 15.7322L12.6445 14.5578C13.9961 14.5578 15.0947 13.4592 15.0947 12.1076C15.0947 10.7561 13.9961 9.6575 12.6445 9.6575L12.6445 8.48303C14.6434 8.48303 16.2691 10.1087 16.2691 12.1076C16.2691 14.1066 14.6434 15.7322 12.6445 15.7322Z" fill="#242920"/>
</svg>
