<svg width="20" height="21" viewBox="0 0 20 21" fill="none" xmlns="http://www.w3.org/2000/svg">
<rect y="0.5" width="20" height="20" rx="3.50264" fill="white"/>
<path d="M8.34224 10.4504C8.34224 9.3567 9.17871 8.46086 10.2472 8.36193L10.2472 4.1274L10.2436 3.0229C10.0458 3.00671 9.84429 2.99951 9.64282 2.99951C5.53061 2.99951 2.18652 6.3436 2.18652 10.454C2.18652 14.5644 5.53061 17.9085 9.64102 17.9085C9.84429 17.9085 10.044 17.8995 10.2418 17.8851L10.2454 16.7806L10.2454 12.5227C9.17691 12.4274 8.34044 11.5423 8.34044 10.4486L8.34224 10.4504Z" fill="#242920"/>
<path d="M10.7861 17.8292L10.7861 16.8272C14.3065 16.8272 17.1703 13.9634 17.1703 10.443C17.1703 6.92265 14.3065 4.05885 10.7861 4.05885L10.7861 3.05688C14.8588 3.05689 18.1723 6.37039 18.1723 10.443C18.1723 14.5157 14.8588 17.8292 10.7861 17.8292Z" fill="#242920"/>
<path d="M10.7861 15.7408L10.7861 14.7388C13.1552 14.7388 15.0836 12.8104 15.0836 10.4413C15.0836 8.0722 13.1552 6.14381 10.7861 6.14381L10.7861 5.14185C13.7075 5.14185 16.0856 7.51815 16.0856 10.4413C16.0856 13.3645 13.7093 15.739 10.7861 15.739L10.7861 15.7408Z" fill="#242920"/>
<path d="M10.7861 13.5353L10.7861 12.5334C11.9392 12.5334 12.8764 11.5961 12.8764 10.4431C12.8764 9.29001 11.9392 8.3528 10.7861 8.3528L10.7861 7.35083C12.4915 7.35083 13.8784 8.73775 13.8784 10.4431C13.8784 12.1484 12.4915 13.5353 10.7861 13.5353Z" fill="#242920"/>
</svg>
